<?xml version="1.0" standalone="no"?>
<!DOCTYPE svg PUBLIC "-//W3C//DTD SVG 20010904//EN"
 "http://www.w3.org/TR/2001/REC-SVG-20010904/DTD/svg10.dtd">
<svg version="1.0" xmlns="http://www.w3.org/2000/svg"
 width="25px" height="25px" viewBox="0 0 773.000000 323.000000"
 preserveAspectRatio="xMidYMid meet">
<metadata>
Created by potrace 1.16, written by Peter Selinger 2001-2019
</metadata>
<g transform="translate(0.000000,323.000000) scale(0.100000,-0.100000)"
fill="purple" stroke="none">
<path d="M3950 2094 c-108 -29 -172 -83 -218 -183 -70 -151 11 -337 174 -402
45 -18 77 -23 139 -22 120 1 213 47 273 136 124 181 29 414 -193 472 -72 18
-103 18 -175 -1z m128 -198 c67 -48 122 -92 122 -96 0 -4 -48 -38 -107 -76
-60 -37 -119 -76 -133 -87 -13 -10 -26 -14 -28 -9 -1 5 13 44 33 87 19 43 35
86 35 97 0 10 -12 47 -26 81 -44 103 -45 109 -31 100 7 -4 68 -48 135 -97z"/>
</g>
</svg>
